<mxfile host="app.diagrams.net" modified="2023-06-05T07:28:48.068Z" agent="Mozilla/5.0 (Windows NT 10.0; Win64; x64; rv:109.0) Gecko/20100101 Firefox/113.0" version="21.3.7" etag="kfZoy5_yo026jYthYpQO" type="github">
  <diagram name="Page-1" id="_semj9I0r0QGSMiG7Ew7">
    <mxGraphModel>
      <root>
        <mxCell id="0" />
        <mxCell id="1" parent="0" />
      </root>
    </mxGraphModel>
  </diagram>
</mxfile>
